<svg xmlns="http://www.w3.org/2000/svg" viewBox="0 0 576 512" fill="#2563EB">
  <path d="M542.2 32H33.8C15.1 32 0 47.1 0 65.8V446.2C0 464.9 15.1 480 33.8 480H542.2c18.7 0 33.8-15.1 33.8-33.8V65.8C576 47.1 560.9 32 542.2 32zM192 416c0 8.8-7.2 16-16 16s-16-7.2-16-16V320c0-8.8 7.2-16 16-16s16 7.2 16 16V416zM288 416c0 8.8-7.2 16-16 16s-16-7.2-16-16V320c0-8.8 7.2-16 16-16s16 7.2 16 16V416zM384 416c0 8.8-7.2 16-16 16s-16-7.2-16-16V320c0-8.8 7.2-16 16-16s16 7.2 16 16V416zM544 256H32V96H544V256z"/>
</svg>